<?xml version="1.0" encoding="utf-8"?>
<!-- Generator: Adobe Illustrator 24.1.1, SVG Export Plug-In . SVG Version: 6.00 Build 0)  -->
<svg version="1.1" id="Layer_1" xmlns="http://www.w3.org/2000/svg" xmlns:xlink="http://www.w3.org/1999/xlink" x="0px" y="0px"
	 viewBox="0 0 512 512" style="enable-background:new 0 0 512 512;" xml:space="preserve">
<g>
	<path d="M227.56,94.82H18.96c-4.99,0-9.88,2.02-13.41,5.55C2.02,103.9,0,108.78,0,113.78v379.26c0,4.99,2.02,9.88,5.55,13.41
		c3.53,3.53,8.42,5.55,13.41,5.55h379.26c4.99,0,9.88-2.02,13.41-5.55s5.55-8.42,5.55-13.41V284.44c0-10.47-8.49-18.96-18.96-18.96
		c-10.47,0-18.96,8.49-18.96,18.96l0,189.63H37.92V132.74l189.63,0c10.47,0,18.96-8.49,18.96-18.96
		C246.52,103.31,238.03,94.82,227.56,94.82L227.56,94.82z M303.41,37.93h170.67l0,170.67c0,10.47,8.49,18.96,18.96,18.96
		c10.47,0,18.96-8.49,18.96-18.96l0-189.63c0-4.99-2.02-9.88-5.55-13.41C502.92,2.02,498.03,0,493.04,0H303.41
		c-10.47,0-18.96,8.49-18.96,18.96C284.44,29.44,292.93,37.93,303.41,37.93L303.41,37.93z M479.63,5.55L214.15,271.04
		c-7.41,7.41-7.41,19.41,0,26.82c7.41,7.41,19.41,7.41,26.82,0L506.45,32.37c7.41-7.41,7.41-19.41,0-26.82
		C499.04-1.85,487.03-1.85,479.63,5.55z"/>
</g>
</svg>
